 http://img194.imageshack.us/img194/4082/tnt24infoscream42011tsx.jpg

Country.......: USA
Genre.........: Horror, Thriller
Date release..: 11.04.2011 [World]
Director......: Wes Craven
Writers.......: Kevin Williamson, Kevin Williamson
Duration......: 111 min.
More..........: http://www.imdb.com/title/tt1262416
Trailer.......: http://www.imdb.com/video/imdb/vi1138597145
Trailer.......:

Pilot :
Ten years have passed, and Sidney Prescott, who has put herself back together thanks in part to her writing, is visited by the Ghostface Killer. 

Cats :
Lucy Hale   	 ...  	Sherrie
Roger Jackson 	... 	The Voice (voice)
Dane Farwell 	... 	Ghostface
Anna Paquin 	... 	Rachel
Kristen Bell 	... 	Chloe
Brittany Robertson 	... 	Marnie Cooper
Neve Campbell 	... 	Sidney Prescott
Alison Brie 	... 	Rebecca Walters
David Arquette 	... 	Dewey Riley
Courteney Cox 	... 	Gale Weathers-Riley
Aimee Teegarden 	... 	Jenny Randall
Hayden Panettiere 	... 	Kirby Reed
Emma Roberts 	... 	Jill Roberts
Marielle Jaffe 	... 	Olivia Morris
Marley Shelton 	... 	Deputy Judy Hicks 

Data Technical :
!!! SAMPLE !!!
Audio.....: English
Subtitles.: Polish .txt
Format                           : AVI
Format/Info                      : Audio Video Interleave
Format profile                   : OpenDML
File size                        : 1.71 GiB
Duration                         : 1h 50mn
Overall bit rate                 : 2 210 Kbps
Video
ID                               : 0
Format                           : MPEG-4 Visual
Format profile                   : Simple@L3
Format settings, BVOP            : No
Format settings, QPel            : No
Format settings, GMC             : No warppoints
Format settings, Matrix          : Default (H.263)
Codec ID                         : XVID
Codec ID/Hint                    : XviD
Duration                         : 1h 50mn
Bit rate                         : 2 064 Kbps
Width                            : 720 pixels
Height                           : 480 pixels
Display aspect ratio             : 3:2
Frame rate                       : 29.970 fps
Original frame rate              : 29.000 fps
Standard                         : NTSC
Color space                      : YUV
Chroma subsampling               : 4:2:0
Bit depth                        : 8 bits
Scan type                        : Progressive
Bits/(Pixel*Frame)               : 0.199
Stream size                      : 1.60 GiB (93%)
Writing library                  : XviD 1.2.1 (UTC 2008-12-04)
Audio
ID                               : 1
Format                           : MPEG Audio
Format version                   : Version 1
Format profile                   : Layer 3
Mode                             : Joint stereo
Mode extension                   : MS Stereo
Codec ID                         : 55
Codec ID/Hint                    : MP3
Duration                         : 45mn 10s
Bit rate mode                    : Constant
Bit rate                         : 128 Kbps
Channel(s)                       : 2 channels
Sampling rate                    : 44.1 KHz
Stream size                      : 41.4 MiB (2%)
Alignment                        : Aligned on interleaves
Interleave, duration             : 64 ms (1.92 video frames)
Writing library                  : LAME3.98.2

Screen : 
http://img580.imageshack.us/img580/1586/scream42011s1.jpg 
http://img11.imageshack.us/img11/8943/scream42011s2.jpg 
http://img192.imageshack.us/img192/4228/scream42011s3.jpg 
http://img850.imageshack.us/img850/9185/scream42011s4.jpg 
http://img41.imageshack.us/img41/4568/scream42011s5.jpg